<?xml version="1.0" encoding="UTF-8" standalone="no"?><!DOCTYPE svg PUBLIC "-//W3C//DTD SVG 1.1//EN" "http://www.w3.org/Graphics/SVG/1.1/DTD/svg11.dtd"><svg width="100%" height="100%" viewBox="0 0 965 436" version="1.1" xmlns="http://www.w3.org/2000/svg" xmlns:xlink="http://www.w3.org/1999/xlink" xml:space="preserve" xmlns:serif="http://www.serif.com/" style="fill-rule:evenodd;clip-rule:evenodd;stroke-linejoin:round;stroke-miterlimit:2;"><rect id="Mesa-de-trabajo1" serif:id="Mesa de trabajo1" x="0" y="0" width="964.603" height="435.732" style="fill:none;"/><clipPath id="_clip1"><rect x="0" y="0" width="964.603" height="435.732"/></clipPath><g clip-path="url(#_clip1)"><g id="Layer_x0020_1"><g id="_1696777764272"><path d="M111.08,324.575l0,-60.802l76.003,-0l0,-15.202l-76.003,-0l0,-136.8l136.804,-0l-0,60.801l-76.003,-0l0,15.198l76.003,-0l-0,136.805l-136.804,-0Zm288.807,-0l-60.802,-0l0,-152.003l-15.202,-0l0,152.003l-60.801,-0l0,-212.804l136.805,-0l0,212.804Zm152.002,-0l-60.801,-0l0,-76.004l-15.202,-0l0,76.004l-60.8,-0l-0,-212.804l136.803,-0l0,212.804Zm-60.801,-136.805l0,-15.198l-15.202,-0l0,15.198l15.202,-0Zm212.803,-75.999l0,60.801l-76.003,-0l0,91.201l76.003,-0l0,60.802l-136.803,-0l-0,-212.804l136.803,-0Zm15.199,-0l60.801,-0l0,75.999l15.202,-0l0,-75.999l60.801,-0l0,83.628l-30.4,30.4l30.4,0l0,98.776l-60.801,-0l0,-76.004l-15.202,-0l0,76.004l-60.801,-0l-0,-212.804Z" style="fill:#fefefe;fill-rule:nonzero;"/><path d="M930.823,397.125l-235.078,0l0,38.911l272.361,0l0,-272.362l-37.283,0l0,233.451Zm-890.037,-357.909l235.079,-0l0,-38.912l-272.362,0l0,272.362l37.283,0l-0,-233.45Z" style="fill:#45e6cb;"/></g></g></g></svg>